<svg width="29" height="27" viewBox="0 0 29 27" fill="none" xmlns="http://www.w3.org/2000/svg">
<path d="M27.1331 10.7883H23.8694V9.68367C23.8694 7.1154 22.8491 4.65232 21.0331 2.83628C19.2171 1.02024 16.754 0 14.1857 0C11.6174 0 9.15436 1.02024 7.33832 2.83628C5.52228 4.65232 4.50204 7.1154 4.50204 9.68367V10.774H1.2598C1.09949 10.7737 0.941145 10.8093 0.796345 10.8781C0.651545 10.9469 0.523947 11.0472 0.42288 11.1716C0.321814 11.2961 0.249832 11.4415 0.212198 11.5974C0.174563 11.7532 0.172227 11.9155 0.205358 12.0723L2.4864 23.0758C2.70177 24.1182 3.26624 25.0559 4.08657 25.7341C4.9069 26.4122 5.93402 26.7903 6.99827 26.8058H21.3444C22.4154 26.8024 23.4526 26.4316 24.283 25.7553C25.1133 25.079 25.6864 24.1382 25.9065 23.0902L28.1876 12.0867C28.2207 11.9298 28.2184 11.7675 28.1807 11.6117C28.1431 11.4559 28.0711 11.3104 27.9701 11.186C27.869 11.0615 27.7414 10.9612 27.5966 10.8924C27.4518 10.8236 27.2934 10.7881 27.1331 10.7883ZM6.65396 9.68367C6.65396 7.68613 7.44749 5.7704 8.85996 4.35792C10.2724 2.94545 12.1882 2.15193 14.1857 2.15193C16.1833 2.15193 18.099 2.94545 19.5115 4.35792C20.9239 5.7704 21.7175 7.68613 21.7175 9.68367V10.774H6.65396V9.68367ZM23.7976 22.6383C23.6836 23.2055 23.3771 23.7158 22.9301 24.0831C22.4831 24.4504 21.923 24.652 21.3444 24.6539H6.99827C6.42122 24.6517 5.86233 24.4519 5.41467 24.0878C4.967 23.7236 4.65757 23.2171 4.5379 22.6526L2.52944 12.9403H25.8133L23.7976 22.6383Z" fill="#98A2B3"/>
</svg>
