<svg width="25" height="25" viewBox="0 0 25 25" fill="none" xmlns="http://www.w3.org/2000/svg">
<path d="M24 11.8611C24.0044 13.5476 23.6103 15.2113 22.85 16.7167C21.9484 18.5206 20.5624 20.0378 18.8473 21.0985C17.1321 22.1592 15.1555 22.7214 13.1389 22.7222C11.4524 22.7266 9.78869 22.3326 8.28332 21.5722L1 24L3.42777 16.7167C2.66741 15.2113 2.27338 13.5476 2.27778 11.8611C2.27856 9.84449 2.84078 7.86789 3.90147 6.15273C4.96216 4.43757 6.47943 3.05159 8.28332 2.15003C9.78869 1.38967 11.4524 0.995639 13.1389 1.00004H13.7778C16.4411 1.14697 18.9566 2.27112 20.8428 4.15724C22.7289 6.04336 23.853 8.55891 24 11.2222V11.8611Z" stroke="#999999" stroke-width="2" stroke-linecap="round" stroke-linejoin="round"/>
</svg>
