<svg width="30" height="26" viewBox="0 0 30 26" fill="none" xmlns="http://www.w3.org/2000/svg">
<path d="M13.9761 24.8078C14.1551 24.9865 14.3977 25.087 14.6507 25.087C14.9036 25.087 15.1463 24.9865 15.3253 24.8078L27.067 13.066C28.5017 11.6313 29.3077 9.68548 29.3077 7.65653C29.3077 5.62758 28.5017 3.68173 27.067 2.24705C25.6323 0.812361 23.6865 0.00636424 21.6575 0.00636424C19.6286 0.00636424 17.6827 0.812361 16.2481 2.24705L14.6507 3.83171L13.0596 2.24068C11.625 0.805998 9.67912 0 7.65017 0C5.62122 0 3.67537 0.805998 2.24068 2.24068C0.805997 3.67537 0 5.62122 0 7.65017C0 9.67912 0.805997 11.625 2.24068 13.0597L13.9761 24.8078ZM3.58351 3.58987C4.11586 3.05398 4.74895 2.62869 5.44633 2.33847C6.14372 2.04825 6.89162 1.89884 7.64698 1.89884C8.40235 1.89884 9.15025 2.04825 9.84763 2.33847C10.545 2.62869 11.1781 3.05398 11.7105 3.58987L13.9761 5.85549C14.0643 5.94477 14.1693 6.01566 14.2851 6.06404C14.4009 6.11242 14.5252 6.13733 14.6507 6.13733C14.7762 6.13733 14.9004 6.11242 15.0162 6.06404C15.132 6.01566 15.2371 5.94477 15.3253 5.85549L17.5909 3.58987C18.3924 2.78431 19.4154 2.23535 20.5297 2.01285C21.6441 1.79034 22.7994 1.90433 23.8488 2.34033C24.8982 2.77632 25.7942 3.51461 26.4228 4.46127C27.0514 5.40794 27.3842 6.52018 27.3789 7.65653C27.3812 8.41135 27.2332 9.15908 26.9437 9.85616C26.6541 10.5532 26.2288 11.1858 25.6924 11.7168L14.6507 22.784L3.58351 11.7168C3.04762 11.1845 2.62232 10.5514 2.3321 9.854C2.04188 9.15661 1.89247 8.40871 1.89247 7.65335C1.89247 6.89798 2.04188 6.15008 2.3321 5.4527C2.62232 4.75531 3.04762 4.12222 3.58351 3.58987Z" fill="#98A2B3"/>
</svg>
