<svg width="37" height="37" viewBox="0 0 37 37" fill="none" xmlns="http://www.w3.org/2000/svg">
<path opacity="0.75" d="M18.1361 0C8.11976 0 0 8.11976 0 18.1361C0 28.1523 8.11976 36.2721 18.1361 36.2721C28.1523 36.2721 36.2721 28.1523 36.2721 18.1361C36.2721 8.11976 28.1523 0 18.1361 0ZM26.5424 12.334C26.2695 15.2017 25.0885 22.1609 24.4875 25.3729C24.2333 26.732 23.7326 27.1877 23.2481 27.2322C22.195 27.3292 21.3951 26.5363 20.3751 25.8676C18.7789 24.8212 17.8771 24.1699 16.3276 23.1488C14.5371 21.9689 15.6979 21.3206 16.7183 20.2602C16.9854 19.9829 21.6258 15.7621 21.7156 15.3792C21.7268 15.3313 21.7375 15.1525 21.6312 15.0586C21.5249 14.9647 21.3687 14.9965 21.2557 15.022C21.0956 15.0584 18.5457 16.7438 13.6058 20.0783C12.882 20.5753 12.2265 20.8174 11.639 20.8048C10.9915 20.7908 9.74586 20.4387 8.81983 20.1376C7.68406 19.7684 6.78135 19.5733 6.85996 18.9463C6.90092 18.6196 7.35066 18.2857 8.2092 17.9444C13.4962 15.6409 17.0218 14.1223 18.7857 13.3884C23.8223 11.2935 24.8688 10.9296 25.551 10.9175C25.7011 10.915 26.0365 10.9521 26.2538 11.1284C26.3983 11.254 26.4904 11.4293 26.5119 11.6196C26.5487 11.8558 26.559 12.0955 26.5424 12.334Z" fill="#007AFF"/>
</svg>
