<svg width="37" height="37" viewBox="0 0 37 37" fill="none" xmlns="http://www.w3.org/2000/svg">
<path opacity="0.75" d="M3.27753 2.54963C0.727905 5.09925 0.727905 9.20332 0.727905 17.4106V18.8615C0.727905 27.0688 0.727905 31.1729 3.27753 33.7225C5.82716 36.2721 9.93122 36.2721 18.1385 36.2721H19.5894C27.7967 36.2721 31.9008 36.2721 34.4504 33.7225C37 31.1729 37 27.0688 37 18.8615V17.4106C37 9.20332 37 5.09925 34.4504 2.54963C31.9008 0 27.7967 0 19.5894 0H18.1385C9.93122 0 5.82716 0 3.27753 2.54963ZM6.84882 11.0328H10.9899C11.1259 17.9547 14.1788 20.8867 16.597 21.4912V11.0328H20.4962V17.0026C22.8841 16.7457 25.3929 14.0252 26.2393 11.0328H30.1385C29.8195 12.5847 29.1837 14.0541 28.2709 15.3492C27.3582 16.6442 26.1881 17.737 24.8337 18.5593C26.3459 19.31 27.6816 20.3731 28.7523 21.6783C29.8231 22.9836 30.6046 24.5013 31.0453 26.1311H26.7531C26.3576 24.7154 25.5528 23.4481 24.4396 22.4882C23.3265 21.5284 21.9546 20.9186 20.4962 20.7356V26.1311H20.0277C11.7607 26.1311 7.0453 20.4635 6.84882 11.0328Z" fill="#AF52DE"/>
</svg>
